# This file uses centimeters as units for non-parametric coordinates.

mtllib Update_Mesh.mtl
g default
v -3.941273 0.000000 1.828735
v 5.124361 0.000000 1.828735
v -3.941273 5.776208 1.828735
v 5.124361 5.776208 1.828735
v -3.941273 5.776208 -3.141740
v 5.124361 5.776208 -3.141740
v -3.941273 0.000000 -3.141740
v 5.124361 0.000000 -3.141740
vt 0.865022 0.360113
vt 0.688033 0.360113
vt 0.688034 0.154434
vt 0.865023 0.154434
vt 0.688033 0.682923
vt 0.865022 0.682923
vt 0.865022 0.888603
vt 0.688033 0.888603
vt 0.305365 0.682923
vt 0.305365 0.360113
vt 0.482354 0.360113
vt 0.482354 0.682923
vt 0.099685 0.682923
vt 0.099685 0.360113
vn 0.000000 0.000000 1.000000
vn 0.000000 0.000000 1.000000
vn 0.000000 0.000000 1.000000
vn 0.000000 0.000000 1.000000
vn 0.000000 1.000000 0.000000
vn 0.000000 1.000000 0.000000
vn 0.000000 1.000000 0.000000
vn 0.000000 1.000000 0.000000
vn 0.000000 0.000000 -1.000000
vn 0.000000 0.000000 -1.000000
vn 0.000000 0.000000 -1.000000
vn 0.000000 0.000000 -1.000000
vn 0.000000 -1.000000 0.000000
vn 0.000000 -1.000000 0.000000
vn 0.000000 -1.000000 0.000000
vn 0.000000 -1.000000 0.000000
vn 1.000000 0.000000 0.000000
vn 1.000000 0.000000 0.000000
vn 1.000000 0.000000 0.000000
vn 1.000000 0.000000 0.000000
vn -1.000000 0.000000 0.000000
vn -1.000000 0.000000 0.000000
vn -1.000000 0.000000 0.000000
vn -1.000000 0.000000 0.000000
s off
g pCube1
usemtl initialShadingGroup
f 1/13/1 2/14/2 4/10/3 3/9/4
f 3/9/5 4/10/6 6/11/7 5/12/8
f 5/12/9 6/11/10 8/2/11 7/5/12
f 7/5/13 8/2/14 2/1/15 1/6/16
f 2/1/17 8/2/18 6/3/19 4/4/20
f 7/5/21 1/6/22 3/7/23 5/8/24
