# This file uses centimeters as units for non-parametric coordinates.

mtllib Update_Mesh2.mtl
g default
v -3.941273 0.000000 1.828735
v 5.124361 0.000000 1.828735
v -3.941273 5.776208 1.828735
v 5.124361 5.776208 1.828735
v -3.941273 5.776208 -3.141740
v 5.124361 5.776208 -3.141740
v -3.941273 0.000000 -3.141740
v 5.124361 0.000000 -3.141740
v 0.591544 0.000000 1.828735
v 0.591544 0.000000 -3.141740
v 0.591544 5.776208 -3.141740
v 0.591544 5.776208 1.828735
v -3.941273 5.776208 -0.656503
v 0.591544 5.776208 -0.656503
v 5.124361 5.776208 -0.656503
v 5.124361 0.000000 -0.656503
v 0.591544 0.000000 -0.656503
v -3.941273 0.000000 -0.656503
v 2.857953 0.000000 1.828735
v 2.857953 0.000000 -3.141740
v 2.857953 5.776208 -3.141740
v 2.857953 5.776208 -0.656503
v 2.857953 5.776208 1.828735
v 3.500533 0.000000 -0.656503
v 2.857953 0.000000 -1.299083
v 3.312325 0.000000 -1.110876
v 2.857953 0.000000 -0.013922
v 3.312325 0.000000 -0.202130
v 2.403580 0.000000 -0.202130
v 2.215372 0.000000 -0.656503
v 2.403580 0.000000 -1.110876
v 3.500533 0.981441 -0.656503
v 2.857953 0.981441 -0.656503
v 2.857953 0.981441 -1.299083
v 3.312325 0.981441 -1.110876
v 2.857953 0.981441 -0.013922
v 3.312325 0.981441 -0.202130
v 2.403580 0.981441 -0.202130
v 2.215372 0.981441 -0.656503
v 2.403580 0.981441 -1.110876
vt 0.595540 0.770841
vt 0.595540 0.482215
vt 0.719723 0.482215
vt 0.719723 0.770841
vt 0.471358 0.482215
vt 0.471358 0.770841
vt 0.200885 0.482215
vt 0.325067 0.482215
vt 0.325067 0.770841
vt 0.200885 0.770841
vt 0.449249 0.482215
vt 0.449249 0.770841
vt 0.009804 0.551220
vt 0.032508 0.551220
vt 0.032508 0.600261
vt 0.009804 0.600261
vt 0.055212 0.551220
vt 0.055212 0.600261
vt 0.146473 0.790805
vt 0.169177 0.790805
vt 0.169177 0.839846
vt 0.146473 0.839846
vt 0.191881 0.790805
vt 0.191881 0.839846
vt 0.570305 0.122507
vt 0.446122 0.122507
vt 0.446122 0.009259
vt 0.570305 0.009259
vt 0.570305 0.235755
vt 0.446122 0.235755
vt 0.321940 0.122507
vt 0.321940 0.009259
vt 0.446122 0.462251
vt 0.570305 0.462251
vt 0.321940 0.235755
vt 0.321940 0.462251
vt 0.178776 0.514324
vt 0.146667 0.514324
vt 0.146667 0.482215
vt 0.169371 0.491620
vt 0.146667 0.546432
vt 0.169371 0.537028
vt 0.114559 0.514324
vt 0.123963 0.491620
vt 0.123963 0.537028
vt 0.741832 0.935207
vt 0.741832 0.708711
vt 0.866014 0.708711
vt 0.866014 0.935207
vt 0.843310 0.618167
vt 0.866014 0.627572
vt 0.990196 0.708711
vt 0.990196 0.935207
vt 0.741832 0.595463
vt 0.833905 0.595463
vt 0.888718 0.618167
vt 0.741832 0.482215
vt 0.843310 0.572759
vt 0.990196 0.595463
vt 0.898122 0.595463
vt 0.866014 0.482215
vt 0.866014 0.563355
vt 0.990196 0.482215
vt 0.888718 0.572759
vt 0.298429 0.122507
vt 0.009804 0.122507
vt 0.009804 0.009259
vt 0.298429 0.009259
vt 0.298429 0.235755
vt 0.009804 0.235755
vt 0.009804 0.462251
vt 0.298429 0.462251
vt 0.881564 0.122507
vt 0.592939 0.122507
vt 0.592939 0.009259
vt 0.881564 0.009259
vt 0.881564 0.235755
vt 0.592939 0.235755
vt 0.592939 0.462251
vt 0.881564 0.462251
vt 0.069746 0.482215
vt 0.092450 0.482215
vt 0.092450 0.531256
vt 0.069746 0.531256
vt 0.047042 0.482215
vt 0.047042 0.531256
vt 0.123644 0.615437
vt 0.100940 0.615437
vt 0.100940 0.566396
vt 0.123644 0.566396
vt 0.078236 0.615437
vt 0.078236 0.566396
vn 0.000000 0.000000 1.000000
vn 0.000000 0.000000 1.000000
vn 0.000000 0.000000 1.000000
vn 0.000000 0.000000 1.000000
vn 0.000000 1.000000 0.000000
vn 0.000000 1.000000 0.000000
vn 0.000000 1.000000 0.000000
vn 0.000000 1.000000 0.000000
vn 0.000000 0.000000 -1.000000
vn 0.000000 0.000000 -1.000000
vn 0.000000 0.000000 -1.000000
vn 0.000000 0.000000 -1.000000
vn 0.000000 -1.000000 -0.000000
vn 0.000000 -1.000000 -0.000000
vn 0.000000 -1.000000 0.000000
vn 0.000000 -1.000000 0.000000
vn 1.000000 0.000000 0.000000
vn 1.000000 0.000000 0.000000
vn 1.000000 0.000000 0.000000
vn 1.000000 0.000000 0.000000
vn -1.000000 0.000000 0.000000
vn -1.000000 0.000000 0.000000
vn -1.000000 0.000000 0.000000
vn -1.000000 0.000000 0.000000
vn 0.000000 -1.000000 0.000000
vn 0.000000 -1.000000 0.000000
vn 0.000000 -1.000000 0.000000
vn 0.000000 -1.000000 0.000000
vn 0.000000 0.000000 -1.000000
vn 0.000000 0.000000 -1.000000
vn 0.000000 0.000000 -1.000000
vn 0.000000 0.000000 -1.000000
vn 0.000000 1.000000 0.000000
vn 0.000000 1.000000 0.000000
vn 0.000000 1.000000 0.000000
vn 0.000000 1.000000 0.000000
vn 0.000000 0.000000 1.000000
vn 0.000000 0.000000 1.000000
vn 0.000000 0.000000 1.000000
vn 0.000000 0.000000 1.000000
vn 0.000000 1.000000 0.000000
vn 0.000000 1.000000 0.000000
vn 0.000000 1.000000 0.000000
vn 0.000000 1.000000 0.000000
vn 1.000000 0.000000 0.000000
vn 1.000000 0.000000 0.000000
vn 0.000000 -1.000000 -0.000000
vn 0.000000 -1.000000 -0.000000
vn 0.000000 -1.000000 0.000000
vn 0.000000 -1.000000 0.000000
vn -1.000000 0.000000 0.000000
vn -1.000000 0.000000 0.000000
vn 0.000000 -1.000000 -0.000000
vn 0.000000 -1.000000 0.000000
vn 0.000000 -1.000000 0.000000
vn 0.000000 -1.000000 0.000000
vn 0.000000 -1.000000 0.000000
vn 0.000000 -1.000000 0.000000
vn 0.000000 -1.000000 0.000000
vn 0.000000 -1.000000 0.000000
vn 0.000000 -1.000000 0.000000
vn 0.000000 -1.000000 0.000000
vn 0.000000 -1.000000 0.000000
vn 0.000000 -1.000000 0.000000
vn 0.000000 -1.000000 0.000000
vn 0.000000 -1.000000 0.000000
vn 0.000000 -1.000000 0.000000
vn 0.000000 -1.000000 0.000000
vn 0.000000 -1.000000 0.000000
vn 0.000000 -1.000000 0.000000
vn 0.000000 -1.000000 0.000000
vn -0.382683 0.000000 0.923880
vn -0.382683 0.000000 0.923880
vn -0.382683 0.000000 0.923880
vn -0.382683 0.000000 0.923880
vn -0.923880 0.000000 0.382683
vn -0.923880 0.000000 0.382683
vn -0.923880 0.000000 0.382683
vn -0.923880 0.000000 0.382683
vn -0.923880 0.000000 -0.382683
vn -0.923880 0.000000 -0.382683
vn -0.923880 0.000000 -0.382683
vn -0.923880 0.000000 -0.382683
vn -0.382683 0.000000 -0.923880
vn -0.382683 0.000000 -0.923880
vn -0.382683 0.000000 -0.923880
vn -0.382683 0.000000 -0.923880
vn 0.923880 0.000000 -0.382683
vn 0.923880 0.000000 -0.382683
vn 0.923880 0.000000 -0.382683
vn 0.923880 0.000000 -0.382683
vn 0.382684 0.000000 -0.923880
vn 0.382684 0.000000 -0.923880
vn 0.382684 0.000000 -0.923880
vn 0.382684 0.000000 -0.923880
vn 0.923880 0.000000 0.382683
vn 0.923880 0.000000 0.382683
vn 0.923880 0.000000 0.382683
vn 0.923880 0.000000 0.382683
vn 0.382683 0.000000 0.923880
vn 0.382683 0.000000 0.923880
vn 0.382683 0.000000 0.923880
vn 0.382683 0.000000 0.923880
s 1
g pCube1
usemtl initialShadingGroup
f 23/65/1 19/66/2 2/67/3 4/68/4
s 2
f 21/25/5 22/26/6 15/27/7 6/28/8
s 3
f 20/73/9 21/74/10 6/75/11 8/76/12
s 4
f 32/37/13 33/38/14 34/39/15 35/40/16
s 5
f 15/1/17 16/2/18 8/3/19 6/4/20
s 6
f 7/7/21 18/8/22 13/9/23 5/10/24
s 7
f 7/46/25 10/47/26 17/48/27 18/49/28
s 3
f 5/79/29 11/78/30 10/77/31 7/80/32
s 2
f 13/33/33 14/30/34 11/29/35 5/34/36
s 1
f 1/71/37 9/70/38 12/69/39 3/72/40
s 2
f 3/36/41 12/35/42 14/30/34 13/33/33
f 15/27/7 22/26/6 23/31/43 4/32/44
s 5
f 2/5/45 16/2/18 15/1/17 4/6/46
s 4
f 36/41/47 33/38/14 32/37/13 37/42/48
s 7
f 18/49/28 17/48/27 9/52/49 1/53/50
s 6
f 13/9/23 18/8/22 1/11/51 3/12/52
s 4
f 38/45/53 39/43/54 33/38/14 36/41/47
f 34/39/15 33/38/14 39/43/54 40/44/55
s 3
f 10/77/31 11/78/30 21/74/10 20/73/9
s 2
f 11/29/35 14/30/34 22/26/6 21/25/5
f 23/31/43 22/26/6 14/30/34 12/35/42
s 1
f 12/69/39 9/70/38 19/66/2 23/65/1
s 9
f 20/54/56 8/57/57 26/58/58 25/55/59
f 8/57/57 16/61/60 24/62/61 26/58/58
f 16/61/60 2/63/62 28/64/63 24/62/61
f 2/63/62 19/59/64 27/60/65 28/64/63
f 9/52/66 17/48/67 30/51/68 29/56/69
f 19/59/64 9/52/66 29/56/69 27/60/65
f 17/48/67 10/47/70 31/50/71 30/51/68
f 10/47/70 20/54/56 25/55/59 31/50/71
s off
f 25/81/72 26/82/73 35/83/74 34/84/75
f 26/13/76 24/14/77 32/15/78 35/16/79
f 24/14/80 28/17/81 37/18/82 32/15/83
f 28/87/84 27/88/85 36/89/86 37/90/87
f 29/19/88 30/20/89 39/21/90 38/22/91
f 27/88/92 29/91/93 38/92/94 36/89/95
f 30/20/96 31/23/97 40/24/98 39/21/99
f 31/85/100 25/81/101 34/84/102 40/86/103
